PathFileType	4	(X/Y/Z)	./resultDataOpenSim/trcMotMarkerGrf/sub09/qtm-04-07.trc
DataRate	CameraRate	NumFrames	NumMarkers	Units	OrigDataRate	OrigDataStartFrame	OrigNumFrames
250.000000	250.000000	15	24	m	250.000000	428	488
Frame#	Time	L.Toe.Tip			R.Toe.Tip			L.Ankle.Lat			R.Ankle.Lat			L.Ankle.Med			R.Ankle.Med			L.Heel			R.Heel			L.Knee.Lat			R.Knee.Lat			L.Knee.Med			R.Knee.Med			L.Thigh.Upper			R.Thigh.Upper			L.ASIS			R.ASIS			V.Sacral			L.Acromium			R.Acromium			C7			L.Elbow			R.Elbow			L.Wrist.Lat			R.Wrist.Lat
		X1	Y1	Z1	X2	Y2	Z2	X3	Y3	Z3	X4	Y4	Z4	X5	Y5	Z5	X6	Y6	Z6	X7	Y7	Z7	X8	Y8	Z8	X9	Y9	Z9	X10	Y10	Z10	X11	Y11	Z11	X12	Y12	Z12	X13	Y13	Z13	X14	Y14	Z14	X15	Y15	Z15	X16	Y16	Z16	X17	Y17	Z17	X18	Y18	Z18	X19	Y19	Z19	X20	Y20	Z20	X21	Y21	Z21	X22	Y22	Z22	X23	Y23	Z23	X24	Y24	Z24

428	1.708	1.66195	0.13254581	-0.075989014	1.0313353	0.038629815	0.091665633	1.5105017	0.098871072	-0.11010475	0.88701967	0.066671296	0.11471628	1.535587	0.1253944	-0.015282952	0.90753262	0.10216473	0.023365881	1.4667232	0.034208855	-0.064182638	0.81683501	0.0550602	0.06158505	1.3520289	0.48637105	-0.12911195	1.0377815	0.50309924	0.19075231	1.3505293	0.47146262	-0.0022273006	1.0666613	0.47879779	0.049103739	1.1757336	0.86343962	-0.14797668	1.1256462	0.89095653	0.22150253	1.2448621	0.95648908	-0.084873581	1.2329356	0.97112768	0.15465148	1.0691932	1.0107874	0.018441705	1.2180435	1.4094187	-0.15679395	1.2048411	1.4292914	0.17438304	1.1423857	1.4685399	0.0061530696	1.0614268	1.077685	-0.20198801	1.0922192	1.0704376	0.2739822	1.1519678	0.83829776	-0.26224708	1.3250828	0.92255621	0.22598395
429	1.712	1.6685784	0.13276757	-0.077203479	1.0313753	0.03867805	0.091657394	1.517041	0.098123514	-0.11021407	0.8873886	0.067526765	0.1148598	1.5413557	0.12462341	-0.016034741	0.90815034	0.1028833	0.023434179	1.4738509	0.033395072	-0.063562255	0.81706828	0.056399096	0.061702989	1.3579488	0.48537493	-0.12973969	1.0381693	0.50373812	0.19173166	1.3564852	0.47060932	-0.0027076292	1.0702117	0.4781749	0.048859511	1.1820113	0.86190209	-0.14833163	1.1310106	0.89007286	0.22098909	1.2504535	0.95522902	-0.085318174	1.2384595	0.97016824	0.15425575	1.0747683	1.009473	0.017588426	1.2231749	1.4083628	-0.15743354	1.2097499	1.4282132	0.17374288	1.1473065	1.4673913	0.0054848138	1.0665778	1.0766801	-0.20263103	1.0974968	1.0693102	0.2731489	1.1570463	0.83722767	-0.263016	1.3299881	0.92053318	0.22566604
430	1.716	1.6744859	0.13217528	-0.078424752	1.0314189	0.038720355	0.091640612	1.5227313	0.097064893	-0.11030256	0.88779948	0.068428703	0.11510295	1.5462342	0.12315139	-0.016773002	0.90871593	0.10365924	0.02364614	1.4799697	0.032436171	-0.062909478	0.81730746	0.057803529	0.061938246	1.3640131	0.48446822	-0.13032979	1.0415871	0.50332159	0.19179736	1.3629266	0.46996867	-0.003214177	1.0739763	0.47752526	0.048702281	1.1883159	0.86041353	-0.14879636	1.1363102	0.88914132	0.22042168	1.2560367	0.9539331	-0.085812485	1.2439824	0.9691675	0.15382885	1.0803539	1.0081702	0.016756766	1.2283235	1.4072984	-0.15807315	1.2146452	1.4271255	0.17309642	1.1522286	1.4662328	0.0048131962	1.0717807	1.0756381	-0.20338119	1.1027765	1.0681688	0.27227798	1.1621805	0.83614055	-0.2637776	1.3349536	0.91846549	0.22534667
431	1.72	1.679749	0.13071751	-0.079599473	1.0314791	0.038729217	0.09165439	1.527653	0.095738413	-0.11040154	0.88826077	0.069368942	0.11544145	1.5507396	0.12138732	-0.017393559	0.90924571	0.10449203	0.023992158	1.4851209	0.031341834	-0.062354211	0.81755582	0.059278735	0.062303256	1.3702398	0.48369916	-0.1308671	1.0471661	0.5021403	0.19122788	1.3698471	0.46952556	-0.0037166366	1.0779837	0.47683451	0.04860584	1.1946078	0.85899954	-0.14935537	1.1415875	0.88819218	0.21981008	1.2616222	0.95262399	-0.08635587	1.2495024	0.9681266	0.15337028	1.0859496	1.006888	0.015958379	1.2334835	1.4062275	-0.15872262	1.219521	1.4260305	0.17244401	1.1571628	1.4650828	0.0041351538	1.0770147	1.0745401	-0.20424789	1.1080688	1.0670191	0.27137779	1.1673813	0.83503807	-0.26452211	1.3399325	0.91634525	0.22503788
432	1.724	1.6844269	0.12842668	-0.08067871	1.0315649	0.038707838	0.091719389	1.5318856	0.094187391	-0.11053502	0.88877349	0.070350588	0.11586293	1.5551694	0.11960931	-0.017857518	0.90977513	0.10537875	0.024441394	1.489377	0.030125252	-0.061980483	0.81782159	0.060834305	0.062793289	1.3766374	0.4830905	-0.13134372	1.0537271	0.50059769	0.19038044	1.3771916	0.46927732	-0.0041919283	1.0822043	0.4760889	0.048529173	1.2008354	0.85768591	-0.14998913	1.1468655	0.88723466	0.21916403	1.2672246	0.95133025	-0.086951972	1.2550217	0.967048	0.1528782	1.091559	1.0056264	0.015188282	1.2386499	1.4051507	-0.15938879	1.2243886	1.424931	0.17178689	1.1621211	1.4639442	0.0034380675	1.0822411	1.0733759	-0.20522555	1.1133659	1.065866	0.27045224	1.1726584	0.8339195	-0.26523966	1.344847	0.91415791	0.22476733
433	1.728	1.6885563	0.12542791	-0.081626228	1.0316768	0.038682616	0.091824125	1.5355081	0.092446997	-0.11072753	0.88932796	0.071393717	0.11635868	1.5593986	0.11777677	-0.018227814	0.91033853	0.10631682	0.024952331	1.4928105	0.028811236	-0.061828209	0.81811513	0.062486405	0.063389501	1.383207	0.48262076	-0.13177091	1.0603598	0.49900522	0.18949919	1.384862	0.46921851	-0.0046344039	1.0865099	0.47527563	0.048429308	1.2069552	0.85650384	-0.15069656	1.1521526	0.8862646	0.21848708	1.272859	0.95008385	-0.087602689	1.2605448	0.96593693	0.15234948	1.0971892	1.0043791	0.01442539	1.2438248	1.4040714	-0.16007046	1.2292674	1.4238305	0.17112968	1.1671225	1.4627982	0.0027017179	1.0874385	1.07214	-0.20632136	1.1186199	1.0647001	0.26948275	1.1780114	0.8327845	-0.26592936	1.3495799	0.91189281	0.22456728
434	1.732	1.6921611	0.12189481	-0.082410386	1.0318083	0.03867404	0.091945797	1.538602	0.090539143	-0.11099613	0.88991787	0.072515935	0.11691571	1.5631897	0.11575149	-0.018577048	0.91096276	0.10730779	0.025480805	1.4954746	0.02743775	-0.061893742	0.81844932	0.064255566	0.064062259	1.3899311	0.48223671	-0.132179	1.0663731	0.49759587	0.18874256	1.3927328	0.46935578	-0.0050586273	1.0907664	0.47440362	0.048271167	1.2129384	0.8554872	-0.15148122	1.1574604	0.88528205	0.21778556	1.2785342	0.94891238	-0.088302226	1.2660864	0.96479925	0.15178184	1.1028426	1.0031413	0.013648182	1.2490113	1.4029975	-0.16076505	1.234167	1.4227247	0.17047857	1.1721908	1.4616232	0.0019126476	1.0926279	1.0708473	-0.20750325	1.1237355	1.0634925	0.26842134	1.1834317	0.83163732	-0.26659727	1.3540233	0.90954876	0.22445351
435	1.736	1.6952648	0.1179749	-0.083002999	1.03195	0.038687689	0.092067723	1.5412508	0.088473669	-0.11132705	0.89055095	0.073722677	0.11750698	1.5664128	0.11347587	-0.018918495	0.91166335	0.10836128	0.025999172	1.4974195	0.026052563	-0.06210941	0.81883901	0.066156627	0.064772332	1.3967631	0.48187795	-0.13259149	1.071311	0.49652017	0.18821536	1.4006725	0.46971702	-0.0054966998	1.0950045	0.47350483	0.048041565	1.218765	0.85465911	-0.15233152	1.1628033	0.88429124	0.21707285	1.2842523	0.94783555	-0.089041009	1.271704	0.96363843	0.15117856	1.1085137	1.0019124	0.012857494	1.2542058	1.4019383	-0.16147445	1.2390788	1.4215941	0.16983769	1.1773222	1.4604263	0.0010848596	1.0978629	1.0695469	-0.20865616	1.1286317	1.0622152	0.2672219	1.1889134	0.83048402	-0.26724811	1.3582067	0.90714224	0.2244076
436	1.74	1.6979181	0.11371537	-0.083394238	1.0320964	0.038720312	0.092184055	1.5435462	0.086267095	-0.11165621	0.89124506	0.075020755	0.11810092	1.569069	0.11100092	-0.019195644	0.91244681	0.10949158	0.026502652	1.4987298	0.02471075	-0.06235507	0.81929861	0.068193128	0.065478223	1.4036389	0.48149848	-0.13299655	1.0752963	0.49574587	0.18792618	1.4085754	0.47029264	-0.0059830803	1.0995088	0.47259562	0.047793853	1.224422	0.85401813	-0.15322832	1.1681911	0.88329261	0.21636438	1.2900069	0.9468662	-0.08981102	1.2775292	0.96245157	0.15055037	1.11419	1.0006971	0.012066657	1.259398	1.400901	-0.16220026	1.2439882	1.4204166	0.16920673	1.1824731	1.4592495	0.00026427149	1.1031743	1.0682812	-0.20967904	1.1333637	1.0608841	0.26590308	1.1944585	0.8293297	-0.26788138	1.3623167	0.90470802	0.22438737
437	1.744	1.7002421	0.10902081	-0.083614078	1.0322457	0.038767073	0.092298767	1.5455993	0.083984104	-0.11187051	0.89202798	0.076422408	0.11866624	1.5712853	0.10847666	-0.019303951	0.91332157	0.11071	0.026993852	1.4995585	0.023505568	-0.062506361	0.81983597	0.070363263	0.066145301	1.4104781	0.48108086	-0.13335821	1.0792339	0.4950122	0.1877739	1.416397	0.47094403	-0.006531588	1.1046605	0.47165166	0.047687759	1.2299114	0.85353467	-0.15416405	1.1736273	0.88228291	0.21566999	1.2957801	0.94601006	-0.090602921	1.2836996	0.9612341	0.14990833	1.1198586	0.99950924	0.011275768	1.264581	1.3998908	-0.16293997	1.2489027	1.4192027	0.16857889	1.1876007	1.4581303	-0.00051033137	1.1085592	1.0670527	-0.21057785	1.1381233	1.0595642	0.26455524	1.2000722	0.82817913	-0.26849494	1.3665235	0.90227785	0.22436628
438	1.748	1.7024571	0.10372488	-0.083722245	1.0323986	0.038826314	0.092420198	1.5475469	0.081781088	-0.11184681	0.89293334	0.077929993	0.11917294	1.5733093	0.10612303	-0.019152226	0.91430145	0.1120203	0.02746975	1.5001198	0.02264217	-0.062466354	0.82045159	0.072667282	0.066748066	1.4171846	0.48063913	-0.13366916	1.0842998	0.49399852	0.18765052	1.424128	0.47147561	-0.0071457832	1.1105254	0.47063406	0.047849151	1.2352542	0.85315942	-0.15514513	1.1791117	0.88125791	0.2149874	1.3015453	0.94526721	-0.091399914	1.2901711	0.96000247	0.1492548	1.1255105	0.9983722	0.010476954	1.2697547	1.3989121	-0.16369153	1.2538593	1.4180049	0.16794126	1.1926899	1.4570724	-0.0012441688	1.1140284	1.0658514	-0.21141489	1.1430538	1.0583089	0.26325125	1.2057562	0.82703794	-0.26908834	1.3708447	0.89985771	0.22435064
439	1.752	1.7048471	0.097830538	-0.08374827	1.0325612	0.038899022	0.092553762	1.5495391	0.079897236	-0.11153436	0.89395779	0.079534399	0.11961263	1.5754695	0.10415112	-0.018749923	0.91539847	0.11341855	0.027921662	1.5006273	0.022445406	-0.062214761	0.82114922	0.075107699	0.06727321	1.4236906	0.48021209	-0.13398193	1.0909919	0.49259907	0.1875541	1.4316989	0.47184004	-0.0078517882	1.1166776	0.46951781	0.04814774	1.2404903	0.85283501	-0.15617495	1.184645	0.88021144	0.2143056	1.3072737	0.94463619	-0.092180369	1.2966669	0.95880224	0.14858359	1.1311351	0.99731267	0.0096832067	1.2749215	1.3979701	-0.16445583	1.25889	1.4168723	0.16728041	1.197745	1.4560676	-0.0019640057	1.1196039	1.0646794	-0.21223728	1.1481451	1.0571173	0.26198515	1.2115075	0.82591226	-0.26966081	1.3751975	0.897433	0.22435486
440	1.756	1.7076364	0.091701225	-0.083646159	1.0327476	0.038985666	0.092697328	1.5517042	0.07855146	-0.1110207	0.89502993	0.081237101	0.12001355	1.5780552	0.10264506	-0.01823399	0.91661843	0.11489862	0.02834145	1.5012264	0.023176522	-0.061885197	0.82194039	0.077687554	0.067726932	1.4300117	0.47985495	-0.13437126	1.0987033	0.49101444	0.18756946	1.4389482	0.4721278	-0.0086760183	1.1226562	0.46830614	0.048318041	1.2456721	0.85250408	-0.15723546	1.1902302	0.8791289	0.21361839	1.3129423	0.94411468	-0.092931914	1.3029277	0.95767512	0.14789001	1.1367136	0.9963554	0.0089375066	1.2800827	1.3970687	-0.16523356	1.2639948	1.4158126	0.16658931	1.2027876	1.4551262	-0.002682878	1.1252666	1.0635366	-0.21307291	1.1533344	1.0559667	0.26072012	1.217321	0.82480633	-0.27021027	1.3795018	0.89499147	0.22437794
441	1.76	1.7108468	0.085917182	-0.083344442	1.0329733	0.039086675	0.092841328	1.5541079	0.077796874	-0.1105015	0.89607542	0.083060983	0.12041984	1.5811379	0.10150319	-0.017780218	0.91796396	0.11646014	0.028725662	1.5019915	0.024765915	-0.061713374	0.82283628	0.080414026	0.068134705	1.4362442	0.47963237	-0.13487011	1.1063118	0.48954492	0.18771993	1.4457647	0.47237841	-0.0095750086	1.1284475	0.46703759	0.04829252	1.2508516	0.85212043	-0.15829049	1.195872	0.87797613	0.21293869	1.3185426	0.94369623	-0.093664137	1.308931	0.95662843	0.14717723	1.14223	0.9955203	0.0082879975	1.2852393	1.3962133	-0.16602593	1.2691533	1.4148138	0.16587234	1.2078555	1.4542741	-0.0034018709	1.1309591	1.0624099	-0.21394703	1.1586056	1.0548593	0.25944737	1.2231958	0.82372241	-0.27073526	1.3837228	0.89253331	0.22440842
442	1.764	1.714271	0.080909991	-0.082828659	1.0332472	0.039206616	0.092972647	1.55674	0.077468612	-0.11016497	0.89711941	0.085030862	0.12085537	1.5844936	0.10052974	-0.017490638	0.91943965	0.11811005	0.029074587	1.5029646	0.026772965	-0.061843458	0.82384436	0.083303568	0.068527562	1.4425152	0.47961076	-0.13546275	1.1131097	0.48832504	0.18785906	1.4523877	0.47260266	-0.010390084	1.1343304	0.46574537	0.048198778	1.2560662	0.85166923	-0.15931079	1.2015916	0.87669468	0.21230422	1.3240761	0.94336928	-0.094404076	1.3148069	0.95564579	0.1464508	1.1476882	0.99481153	0.0077455209	1.2903903	1.3954143	-0.16683829	1.2743446	1.4138732	0.16514473	1.2129794	1.4535257	-0.0041268348	1.1366496	1.0612882	-0.21486384	1.1639613	1.0538177	0.25816944	1.2291378	0.8226648	-0.27123532	1.3878734	0.89006422	0.22444155
